<mxfile host="app.diagrams.net" modified="2023-05-05T05:38:09.106Z" agent="Mozilla/5.0 (Windows NT 10.0; Win64; x64) AppleWebKit/537.36 (KHTML, like Gecko) Chrome/112.0.0.0 Safari/537.36 Edg/112.0.1722.68" etag="AE1z20q_P2Mnp8YNWlp0" version="21.2.9" type="google">
  <diagram name="Página-1" id="2Syhkzbhjun2w0gJ5Eeh">
    <mxGraphModel grid="1" page="1" gridSize="10" guides="1" tooltips="1" connect="1" arrows="1" fold="1" pageScale="1" pageWidth="1169" pageHeight="827" math="0" shadow="0">
      <root>
        <mxCell id="0" />
        <mxCell id="1" parent="0" />
        <mxCell id="hfysusJ_UThqVZN3HZuq-1" value="HR" style="swimlane;fontStyle=1;align=center;verticalAlign=top;childLayout=stackLayout;horizontal=1;startSize=26;horizontalStack=0;resizeParent=1;resizeParentMax=0;resizeLast=0;collapsible=1;marginBottom=0;whiteSpace=wrap;html=1;" vertex="1" parent="1">
          <mxGeometry x="190" y="100" width="700" height="230" as="geometry" />
        </mxCell>
        <mxCell id="hfysusJ_UThqVZN3HZuq-2" value="+ field: empleados&lt;br style=&quot;border-color: var(--border-color);&quot;&gt;+field: departamentos&lt;br style=&quot;border-color: var(--border-color);&quot;&gt;" style="text;strokeColor=none;fillColor=none;align=left;verticalAlign=top;spacingLeft=4;spacingRight=4;overflow=hidden;rotatable=0;points=[[0,0.5],[1,0.5]];portConstraint=eastwest;whiteSpace=wrap;html=1;" vertex="1" parent="hfysusJ_UThqVZN3HZuq-1">
          <mxGeometry y="26" width="700" height="74" as="geometry" />
        </mxCell>
        <mxCell id="hfysusJ_UThqVZN3HZuq-3" value="" style="line;strokeWidth=1;fillColor=none;align=left;verticalAlign=middle;spacingTop=-1;spacingLeft=3;spacingRight=3;rotatable=0;labelPosition=right;points=[];portConstraint=eastwest;strokeColor=inherit;" vertex="1" parent="hfysusJ_UThqVZN3HZuq-1">
          <mxGeometry y="100" width="700" height="8" as="geometry" />
        </mxCell>
        <mxCell id="hfysusJ_UThqVZN3HZuq-4" value="&lt;div&gt;&lt;br&gt;&lt;/div&gt;+method(Contratar): Empleado&lt;span style=&quot;background-color: initial;&quot;&gt;&lt;br&gt;&lt;/span&gt;+method( Despedir): Empleado&lt;br&gt;&lt;div&gt;&amp;nbsp;+method(buscar_empleado(id):&amp;nbsp;buscar_empleado&lt;/div&gt;&lt;div&gt;+method():&amp;nbsp;calcular_salario_total()&lt;/div&gt;+method():&amp;nbsp;calcular_salario_promedio():&lt;br&gt;&lt;div&gt;&lt;br&gt;&lt;/div&gt;" style="text;strokeColor=none;fillColor=none;align=left;verticalAlign=top;spacingLeft=4;spacingRight=4;overflow=hidden;rotatable=0;points=[[0,0.5],[1,0.5]];portConstraint=eastwest;whiteSpace=wrap;html=1;" vertex="1" parent="hfysusJ_UThqVZN3HZuq-1">
          <mxGeometry y="108" width="700" height="122" as="geometry" />
        </mxCell>
        <mxCell id="Sl7VbawM-Kpv8AohSlt3-16" value="EMPLEADO&lt;br&gt;" style="swimlane;fontStyle=1;align=center;verticalAlign=top;childLayout=stackLayout;horizontal=1;startSize=40;horizontalStack=0;resizeParent=1;resizeParentMax=0;resizeLast=0;collapsible=1;marginBottom=0;whiteSpace=wrap;html=1;" vertex="1" parent="1">
          <mxGeometry x="840" y="640" width="640" height="220" as="geometry" />
        </mxCell>
        <mxCell id="Sl7VbawM-Kpv8AohSlt3-17" value="+ field: id&lt;br&gt;+ field: nombre&lt;br&gt;+ field: departamento&lt;br&gt;+ field: Salario&lt;br&gt;" style="text;strokeColor=none;fillColor=none;align=left;verticalAlign=top;spacingLeft=4;spacingRight=4;overflow=hidden;rotatable=0;points=[[0,0.5],[1,0.5]];portConstraint=eastwest;whiteSpace=wrap;html=1;" vertex="1" parent="Sl7VbawM-Kpv8AohSlt3-16">
          <mxGeometry y="40" width="640" height="70" as="geometry" />
        </mxCell>
        <mxCell id="Sl7VbawM-Kpv8AohSlt3-18" value="" style="line;strokeWidth=1;fillColor=none;align=left;verticalAlign=middle;spacingTop=-1;spacingLeft=3;spacingRight=3;rotatable=0;labelPosition=right;points=[];portConstraint=eastwest;strokeColor=inherit;" vertex="1" parent="Sl7VbawM-Kpv8AohSlt3-16">
          <mxGeometry y="110" width="640" height="8" as="geometry" />
        </mxCell>
        <mxCell id="Sl7VbawM-Kpv8AohSlt3-19" value="+ method(): obtener_salario():&amp;nbsp;" style="text;align=left;verticalAlign=top;spacingLeft=4;spacingRight=4;overflow=hidden;rotatable=0;points=[[0,0.5],[1,0.5]];portConstraint=eastwest;whiteSpace=wrap;html=1;" vertex="1" parent="Sl7VbawM-Kpv8AohSlt3-16">
          <mxGeometry y="118" width="640" height="102" as="geometry" />
        </mxCell>
        <mxCell id="Sl7VbawM-Kpv8AohSlt3-20" value="DEPARTAMENTO&lt;br&gt;" style="swimlane;fontStyle=1;align=center;verticalAlign=top;childLayout=stackLayout;horizontal=1;startSize=26;horizontalStack=0;resizeParent=1;resizeParentMax=0;resizeLast=0;collapsible=1;marginBottom=0;whiteSpace=wrap;html=1;" vertex="1" parent="1">
          <mxGeometry x="930" y="-190" width="520" height="228" as="geometry" />
        </mxCell>
        <mxCell id="Sl7VbawM-Kpv8AohSlt3-21" value="&lt;div&gt;+field: identificación del departamento&lt;/div&gt;&lt;div&gt;+field: nombre del departamento&lt;/div&gt;&lt;div&gt;&lt;br&gt;&lt;/div&gt;" style="text;strokeColor=none;fillColor=none;align=left;verticalAlign=top;spacingLeft=4;spacingRight=4;overflow=hidden;rotatable=0;points=[[0,0.5],[1,0.5]];portConstraint=eastwest;whiteSpace=wrap;html=1;" vertex="1" parent="Sl7VbawM-Kpv8AohSlt3-20">
          <mxGeometry y="26" width="520" height="84" as="geometry" />
        </mxCell>
        <mxCell id="Sl7VbawM-Kpv8AohSlt3-22" value="" style="line;strokeWidth=1;fillColor=none;align=left;verticalAlign=middle;spacingTop=-1;spacingLeft=3;spacingRight=3;rotatable=0;labelPosition=right;points=[];portConstraint=eastwest;strokeColor=inherit;" vertex="1" parent="Sl7VbawM-Kpv8AohSlt3-20">
          <mxGeometry y="110" width="520" height="8" as="geometry" />
        </mxCell>
        <mxCell id="Sl7VbawM-Kpv8AohSlt3-23" value="&lt;div&gt;+method (agregar_empleado):agregar_empleado&lt;/div&gt;&lt;div&gt;+method (eliminar_empleado):eliminar_empleado&lt;/div&gt;&lt;div&gt;+method (obtener_empleados): obtener_empleados&lt;/div&gt;" style="text;strokeColor=none;fillColor=none;align=left;verticalAlign=top;spacingLeft=4;spacingRight=4;overflow=hidden;rotatable=0;points=[[0,0.5],[1,0.5]];portConstraint=eastwest;whiteSpace=wrap;html=1;" vertex="1" parent="Sl7VbawM-Kpv8AohSlt3-20">
          <mxGeometry y="118" width="520" height="110" as="geometry" />
        </mxCell>
        <mxCell id="Sl7VbawM-Kpv8AohSlt3-24" value="Salario" style="swimlane;fontStyle=1;align=center;verticalAlign=top;childLayout=stackLayout;horizontal=1;startSize=26;horizontalStack=0;resizeParent=1;resizeParentMax=0;resizeLast=0;collapsible=1;marginBottom=0;whiteSpace=wrap;html=1;" vertex="1" parent="1">
          <mxGeometry x="1390" y="410" width="390" height="190" as="geometry" />
        </mxCell>
        <mxCell id="Sl7VbawM-Kpv8AohSlt3-25" value="&amp;nbsp;&amp;nbsp;+field:sueldo_base&lt;div&gt;+field: horas extra&lt;/div&gt;&lt;div&gt;+field: bonificaciones&lt;/div&gt;" style="text;strokeColor=none;fillColor=none;align=left;verticalAlign=top;spacingLeft=4;spacingRight=4;overflow=hidden;rotatable=0;points=[[0,0.5],[1,0.5]];portConstraint=eastwest;whiteSpace=wrap;html=1;" vertex="1" parent="Sl7VbawM-Kpv8AohSlt3-24">
          <mxGeometry y="26" width="390" height="64" as="geometry" />
        </mxCell>
        <mxCell id="Sl7VbawM-Kpv8AohSlt3-26" value="" style="line;strokeWidth=1;fillColor=none;align=left;verticalAlign=middle;spacingTop=-1;spacingLeft=3;spacingRight=3;rotatable=0;labelPosition=right;points=[];portConstraint=eastwest;strokeColor=inherit;" vertex="1" parent="Sl7VbawM-Kpv8AohSlt3-24">
          <mxGeometry y="90" width="390" height="8" as="geometry" />
        </mxCell>
        <mxCell id="Sl7VbawM-Kpv8AohSlt3-27" value="+method(calcularsalario):calcularsalario" style="text;strokeColor=none;fillColor=none;align=left;verticalAlign=top;spacingLeft=4;spacingRight=4;overflow=hidden;rotatable=0;points=[[0,0.5],[1,0.5]];portConstraint=eastwest;whiteSpace=wrap;html=1;" vertex="1" parent="Sl7VbawM-Kpv8AohSlt3-24">
          <mxGeometry y="98" width="390" height="92" as="geometry" />
        </mxCell>
        <mxCell id="zsHXTsRII615p9ypjHda-6" value="" style="endArrow=diamondThin;endFill=0;endSize=24;html=1;rounded=0;entryX=0.381;entryY=-0.004;entryDx=0;entryDy=0;entryPerimeter=0;" edge="1" parent="1" source="hfysusJ_UThqVZN3HZuq-1" target="Sl7VbawM-Kpv8AohSlt3-16">
          <mxGeometry width="160" relative="1" as="geometry">
            <mxPoint x="1200" y="520" as="sourcePoint" />
            <mxPoint x="1360" y="520" as="targetPoint" />
          </mxGeometry>
        </mxCell>
        <mxCell id="zsHXTsRII615p9ypjHda-8" value="" style="endArrow=diamondThin;endFill=1;endSize=24;html=1;rounded=0;entryX=-0.001;entryY=0.04;entryDx=0;entryDy=0;entryPerimeter=0;" edge="1" parent="1" source="Sl7VbawM-Kpv8AohSlt3-16" target="Sl7VbawM-Kpv8AohSlt3-24">
          <mxGeometry width="160" relative="1" as="geometry">
            <mxPoint x="1200" y="410" as="sourcePoint" />
            <mxPoint x="1360" y="410" as="targetPoint" />
          </mxGeometry>
        </mxCell>
        <mxCell id="zsHXTsRII615p9ypjHda-11" value="" style="endArrow=diamondThin;endFill=1;endSize=24;html=1;rounded=0;exitX=0.546;exitY=-0.018;exitDx=0;exitDy=0;exitPerimeter=0;" edge="1" parent="1" source="Sl7VbawM-Kpv8AohSlt3-16" target="Sl7VbawM-Kpv8AohSlt3-20">
          <mxGeometry width="160" relative="1" as="geometry">
            <mxPoint x="1200" y="110" as="sourcePoint" />
            <mxPoint x="1360" y="110" as="targetPoint" />
          </mxGeometry>
        </mxCell>
        <mxCell id="zsHXTsRII615p9ypjHda-12" value="1:N" style="text;align=center;fontStyle=1;verticalAlign=middle;spacingLeft=3;spacingRight=3;strokeColor=none;rotatable=0;points=[[0,0.5],[1,0.5]];portConstraint=eastwest;html=1;" vertex="1" parent="1">
          <mxGeometry x="850" y="440" width="80" height="26" as="geometry" />
        </mxCell>
        <mxCell id="zsHXTsRII615p9ypjHda-15" value="" style="endArrow=diamondThin;endFill=0;endSize=24;html=1;rounded=0;entryX=-0.002;entryY=0.058;entryDx=0;entryDy=0;entryPerimeter=0;" edge="1" parent="1" source="hfysusJ_UThqVZN3HZuq-1" target="Sl7VbawM-Kpv8AohSlt3-20">
          <mxGeometry width="160" relative="1" as="geometry">
            <mxPoint x="810" y="-180" as="sourcePoint" />
            <mxPoint x="970" y="-180" as="targetPoint" />
          </mxGeometry>
        </mxCell>
        <mxCell id="zsHXTsRII615p9ypjHda-16" value="1:N" style="text;align=center;fontStyle=1;verticalAlign=middle;spacingLeft=3;spacingRight=3;strokeColor=none;rotatable=0;points=[[0,0.5],[1,0.5]];portConstraint=eastwest;html=1;" vertex="1" parent="1">
          <mxGeometry x="750" y="-70" width="80" height="26" as="geometry" />
        </mxCell>
        <mxCell id="zsHXTsRII615p9ypjHda-18" value="1:N" style="text;align=center;fontStyle=1;verticalAlign=middle;spacingLeft=3;spacingRight=3;strokeColor=none;rotatable=0;points=[[0,0.5],[1,0.5]];portConstraint=eastwest;html=1;" vertex="1" parent="1">
          <mxGeometry x="1130" y="60" width="80" height="26" as="geometry" />
        </mxCell>
        <mxCell id="zsHXTsRII615p9ypjHda-19" value="N:1" style="text;align=center;fontStyle=1;verticalAlign=middle;spacingLeft=3;spacingRight=3;strokeColor=none;rotatable=0;points=[[0,0.5],[1,0.5]];portConstraint=eastwest;html=1;" vertex="1" parent="1">
          <mxGeometry x="1130" y="574" width="80" height="26" as="geometry" />
        </mxCell>
        <mxCell id="zsHXTsRII615p9ypjHda-20" value="1:1" style="text;align=center;fontStyle=1;verticalAlign=middle;spacingLeft=3;spacingRight=3;strokeColor=none;rotatable=0;points=[[0,0.5],[1,0.5]];portConstraint=eastwest;html=1;" vertex="1" parent="1">
          <mxGeometry x="1300" y="530" width="80" height="26" as="geometry" />
        </mxCell>
      </root>
    </mxGraphModel>
  </diagram>
</mxfile>
